<?xml version="1.0" standalone="no"?>
<!DOCTYPE svg PUBLIC "-//W3C//DTD SVG 20010904//EN"
 "http://www.w3.org/TR/2001/REC-SVG-20010904/DTD/svg10.dtd">
<svg version="1.0" xmlns="http://www.w3.org/2000/svg"
 width="62.000000pt" height="62.000000pt" viewBox="0 0 62.000000 62.000000"
 preserveAspectRatio="xMidYMid meet">

<g transform="translate(0.000000,62.000000) scale(0.100000,-0.100000)"
fill="#FFC107" stroke="none">
<path d="M190 475 c-63 -41 -116 -79 -118 -85 -2 -5 7 -10 21 -10 21 0 26 -6
31 -37 4 -21 11 -60 16 -88 l8 -50 -1 58 c-2 51 0 57 18 57 19 0 20 -7 20 -90
0 -86 -1 -90 -22 -90 -16 0 -20 5 -17 23 2 12 -4 5 -14 -15 -10 -23 -24 -38
-34 -38 -11 0 -18 -8 -18 -20 0 -19 7 -20 230 -20 223 0 230 1 230 20 0 13 -7
20 -18 20 -39 0 -50 100 -27 233 6 30 11 37 31 37 13 0 24 4 24 9 0 11 -160
114 -167 107 -2 -2 31 -27 74 -55 43 -28 70 -51 61 -51 -10 0 -61 27 -113 61
l-95 61 -95 -61 c-52 -34 -103 -61 -113 -61 -9 0 32 32 92 71 87 56 114 69
135 65 25 -6 25 -6 7 9 -11 8 -22 15 -25 15 -3 0 -58 -34 -121 -75z m207 -35
l78 -50 -165 0 -165 0 75 49 c41 27 81 50 87 50 7 1 48 -21 90 -49z m93 -70
c0 -6 -67 -10 -180 -10 -113 0 -180 4 -180 10 0 6 67 10 180 10 113 0 180 -4
180 -10z m-312 -27 c-10 -2 -26 -2 -35 0 -10 3 -2 5 17 5 19 0 27 -2 18 -5z
m91 -24 c14 -42 14 -151 -1 -184 -17 -37 -51 -33 -66 8 -15 43 -15 131 0 174
16 45 52 46 67 2z m59 24 c-10 -2 -26 -2 -35 0 -10 3 -2 5 17 5 19 0 27 -2 18
-5z m90 -26 c28 -78 7 -207 -33 -207 -30 0 -45 38 -45 114 0 83 15 126 44 126
16 0 25 -9 34 -33z m60 26 c-10 -2 -26 -2 -35 0 -10 3 -2 5 17 5 19 0 27 -2
18 -5z m-153 -113 c0 -73 -3 -90 -15 -90 -12 0 -15 17 -15 90 0 73 3 90 15 90
12 0 15 -17 15 -90z m150 0 c0 -83 -1 -90 -20 -90 -19 0 -20 7 -20 90 0 83 1
90 20 90 19 0 20 -7 20 -90z m-287 -117 c-10 -2 -28 -2 -40 0 -13 2 -5 4 17 4
22 1 32 -1 23 -4z m140 0 c-10 -2 -26 -2 -35 0 -10 3 -2 5 17 5 19 0 27 -2 18
-5z m150 0 c-10 -2 -28 -2 -40 0 -13 2 -5 4 17 4 22 1 32 -1 23 -4z m47 -23
c-8 -14 -422 -14 -430 0 -4 7 70 10 215 10 145 0 219 -3 215 -10z"/>
<path d="M293 464 c-4 -10 1 -22 10 -29 21 -15 22 -29 2 -21 -8 3 -15 1 -15
-4 0 -17 30 -11 37 6 4 11 -1 22 -12 30 -17 13 -17 14 -1 14 9 0 14 5 11 10
-9 15 -25 12 -32 -6z"/>
</g>
</svg>
