<?xml version="1.0" standalone="no"?>
<!DOCTYPE svg PUBLIC "-//W3C//DTD SVG 20010904//EN"
 "http://www.w3.org/TR/2001/REC-SVG-20010904/DTD/svg10.dtd">
<svg version="1.0" xmlns="http://www.w3.org/2000/svg"
 width="62.000000pt" height="62.000000pt" viewBox="0 0 62.000000 62.000000"
 preserveAspectRatio="xMidYMid meet">

<g transform="translate(0.000000,62.000000) scale(0.100000,-0.100000)"
fill="#7635DC" stroke="none">
<path d="M140 525 c-10 -13 -10 -19 4 -33 24 -27 20 -48 -13 -61 -55 -24 -66
-87 -22 -132 40 -40 75 -38 116 5 24 26 35 32 44 23 6 -6 11 -16 11 -23 0 -6
7 -17 16 -24 12 -11 18 -10 31 3 21 20 10 47 -19 47 -29 1 -50 17 -65 52 -10
22 -9 29 8 44 16 14 19 15 19 2 0 -28 39 -52 86 -53 61 0 77 -25 39 -58 -17
-14 -28 -35 -30 -55 -3 -49 -18 -59 -51 -33 -15 11 -37 21 -49 21 -27 0 -72
-33 -80 -60 -7 -21 -39 -27 -50 -10 -10 16 -45 12 -52 -6 -3 -8 1 -23 10 -32
15 -14 18 -14 35 1 27 25 48 21 61 -12 24 -56 87 -66 133 -21 35 35 64 33 79
-7 12 -32 44 -27 44 7 0 20 -6 26 -35 30 -46 8 -60 17 -60 40 0 27 18 35 38
17 57 -51 141 -15 142 61 0 37 -37 82 -68 82 -11 0 -27 11 -36 25 -15 23 -12
44 10 83 5 9 37 -15 45 -34 10 -27 46 -33 55 -9 8 20 -15 47 -33 41 -17 -7
-73 20 -73 35 0 21 -50 59 -78 59 -33 0 -82 -34 -82 -56 0 -8 -11 -26 -25 -39
-21 -22 -27 -24 -50 -13 -27 12 -31 28 -13 57 23 37 -14 70 -42 36z m38 -16
c-2 -6 -8 -10 -13 -10 -5 0 -11 4 -13 10 -2 6 4 11 13 11 9 0 15 -5 13 -11z
m216 -4 c23 -23 28 -52 15 -77 -8 -14 -14 -18 -17 -10 -5 15 -78 16 -88 1 -4
-8 -9 -7 -15 2 -13 21 -11 52 7 77 18 26 74 30 98 7z m126 -90 c0 -8 -4 -15
-9 -15 -13 0 -22 16 -14 24 11 11 23 6 23 -9z m-308 -12 c10 -9 18 -30 18 -49
0 -34 -14 -52 -25 -34 -8 13 -85 13 -85 -1 0 -5 -4 -7 -10 -4 -16 10 -12 67 7
87 20 22 70 23 95 1z m168 2 c0 -10 -10 -15 -30 -15 -20 0 -30 5 -30 15 0 10
10 15 30 15 20 0 30 -5 30 -15z m99 -90 c33 -17 46 -56 30 -88 -8 -13 -14 -17
-17 -9 -5 15 -74 16 -89 1 -9 -9 -14 -5 -19 15 -11 44 17 85 64 95 2 1 16 -6
31 -14z m-288 -10 c0 -5 -7 -12 -16 -13 -23 -5 -47 6 -40 19 8 13 56 8 56 -6z
m129 0 c0 -8 -4 -15 -10 -15 -5 0 -10 7 -10 15 0 8 5 15 10 15 6 0 10 -7 10
-15z m-8 -92 c10 -9 18 -30 18 -49 0 -34 -14 -52 -25 -34 -8 13 -72 13 -80 0
-11 -18 -25 0 -25 32 0 17 7 40 17 50 20 22 70 23 95 1z m168 -8 c0 -10 -10
-15 -30 -15 -20 0 -30 5 -30 15 0 10 10 15 30 15 20 0 30 -5 30 -15z m-358
-40 c0 -5 -5 -11 -11 -13 -6 -2 -11 4 -11 13 0 9 5 15 11 13 6 -2 11 -8 11
-13z m168 -50 c0 -10 -10 -15 -30 -15 -29 0 -38 9 -23 23 13 13 53 7 53 -8z
m150 -6 c0 -5 -7 -9 -15 -9 -15 0 -20 12 -9 23 8 8 24 -1 24 -14z"/>
<path d="M324 495 c-9 -23 3 -45 26 -45 25 0 37 25 20 45 -16 19 -39 19 -46 0z
m34 -16 c-2 -6 -8 -10 -13 -10 -5 0 -11 4 -13 10 -2 6 4 11 13 11 9 0 15 -5
13 -11z"/>
<path d="M140 395 c-11 -13 -11 -19 3 -32 21 -21 49 -9 45 19 -4 28 -30 35
-48 13z m38 -16 c-2 -6 -8 -10 -13 -10 -5 0 -11 4 -13 10 -2 6 4 11 13 11 9 0
15 -5 13 -11z"/>
<path d="M424 295 c-9 -23 3 -45 25 -45 23 0 35 28 20 46 -15 18 -38 18 -45
-1z m34 -16 c-2 -6 -8 -10 -13 -10 -5 0 -11 4 -13 10 -2 6 4 11 13 11 9 0 15
-5 13 -11z"/>
<path d="M241 207 c-17 -21 -3 -49 23 -45 15 2 21 10 21 28 0 28 -26 38 -44
17z m37 -18 c-2 -6 -8 -10 -13 -10 -5 0 -11 4 -13 10 -2 6 4 11 13 11 9 0 15
-5 13 -11z"/>
</g>
</svg>
