<?xml version="1.0" standalone="no"?>
<!DOCTYPE svg PUBLIC "-//W3C//DTD SVG 20010904//EN"
 "http://www.w3.org/TR/2001/REC-SVG-20010904/DTD/svg10.dtd">
<svg version="1.0" xmlns="http://www.w3.org/2000/svg"
 width="62.000000pt" height="62.000000pt" viewBox="0 0 62.000000 62.000000"
 preserveAspectRatio="xMidYMid meet">

<g transform="translate(0.000000,62.000000) scale(0.100000,-0.100000)"
fill="#1890FF" stroke="none">
<path d="M407 540 c-27 -21 -101 -28 -112 -10 -10 17 -61 11 -78 -8 -10 -10
-17 -28 -17 -40 0 -16 -6 -22 -24 -22 -21 0 -24 -5 -30 -60 -20 -195 -17 -180
-43 -180 l-24 0 3 138 3 137 53 3 c66 4 69 22 4 22 -78 0 -82 -10 -82 -183 0
-134 2 -149 20 -167 20 -20 60 -27 60 -11 0 5 -12 11 -27 13 -14 2 -28 9 -31
16 -3 9 48 12 233 12 185 0 236 -3 233 -12 -4 -10 -54 -14 -196 -16 -117 -1
-192 -6 -192 -12 0 -6 14 -10 31 -10 24 0 30 -3 25 -16 -3 -9 -6 -18 -6 -20 0
-2 -8 -4 -18 -4 -23 0 -42 -19 -42 -42 0 -17 13 -18 165 -18 152 0 165 1 165
18 0 23 -19 42 -41 42 -9 0 -19 9 -22 20 -5 18 0 20 52 20 75 0 101 18 100 68
-1 20 -3 29 -6 20 -4 -15 -16 -18 -63 -18 l-58 0 -7 68 c-8 87 -10 90 -37 94
-19 2 -24 10 -26 41 -3 32 -7 37 -28 37 -17 0 -24 5 -24 20 0 14 7 20 24 20
18 0 25 -7 29 -30 12 -58 74 -88 127 -60 19 10 43 67 34 81 -3 5 -1 9 5 9 15
0 21 -33 24 -145 l3 -100 2 115 c1 63 -2 120 -6 125 -15 21 -89 65 -109 65
-11 0 -32 -9 -46 -20z m97 -19 c24 -26 17 -70 -15 -94 -61 -45 -133 38 -82 95
21 24 75 23 97 -1z m-227 3 c-3 -3 -12 -4 -19 -1 -8 3 -5 6 6 6 11 1 17 -2 13
-5z m-1 -24 c27 0 34 -4 34 -20 0 -17 -7 -20 -44 -20 -51 0 -62 10 -45 42 8
14 14 18 17 10 2 -6 19 -12 38 -12z m-75 -67 c1 -17 2 -17 6 0 7 25 102 25
104 0 1 -17 2 -17 6 0 8 30 38 16 41 -21 3 -32 3 -32 -42 -32 l-44 0 -7 -67
c-9 -96 -7 -93 -70 -93 -49 0 -56 2 -51 18 2 9 8 58 12 107 3 50 8 93 11 98 8
14 33 7 34 -10z m213 -105 c3 -24 7 -58 9 -75 l4 -33 -79 0 -79 0 6 63 c9 90
7 87 74 87 l60 0 5 -42z m-14 -198 c0 -18 -7 -20 -85 -20 -64 0 -85 3 -85 13
0 24 12 27 92 27 71 0 78 -2 78 -20z m60 -45 c11 -13 -5 -15 -139 -15 -85 0
-151 4 -151 9 0 16 23 19 151 20 101 1 129 -2 139 -14z"/>
<path d="M460 489 c-9 -21 -15 -27 -21 -17 -4 7 -11 9 -14 6 -4 -4 0 -17 8
-28 15 -22 16 -22 36 18 23 46 25 52 12 52 -5 0 -14 -14 -21 -31z"/>
<path d="M311 323 c-1 -29 19 -53 43 -53 14 0 36 34 36 56 0 33 -18 30 -22 -3
-4 -40 -41 -39 -49 2 l-7 30 -1 -32z"/>
<path d="M460 350 c0 -5 18 -10 40 -10 22 0 40 5 40 10 0 6 -18 10 -40 10 -22
0 -40 -4 -40 -10z"/>
<path d="M488 313 c12 -2 30 -2 40 0 9 3 -1 5 -23 4 -22 0 -30 -2 -17 -4z"/>
</g>
</svg>
