<?xml version="1.0" standalone="no"?>
<!DOCTYPE svg PUBLIC "-//W3C//DTD SVG 20010904//EN"
 "http://www.w3.org/TR/2001/REC-SVG-20010904/DTD/svg10.dtd">
<svg version="1.0" xmlns="http://www.w3.org/2000/svg"
 width="62.000000pt" height="62.000000pt" viewBox="0 0 62.000000 62.000000"
 preserveAspectRatio="xMidYMid meet">

<g transform="translate(0.000000,62.000000) scale(0.100000,-0.100000)"
fill="#000000" stroke="none">
<path d="M250 535 c0 -43 1 -45 30 -45 25 0 30 -4 30 -26 l0 -25 33 25 c24 18
46 26 75 26 l42 0 0 45 0 45 -105 0 -105 0 0 -45z m190 0 c0 -22 -4 -25 -39
-25 -22 0 -44 -6 -51 -15 -15 -18 -31 -20 -27 -2 1 7 -11 13 -30 15 -27 3 -33
7 -33 28 0 24 1 24 90 24 89 0 90 0 90 -25z"/>
<path d="M338 533 c12 -2 30 -2 40 0 9 3 -1 5 -23 4 -22 0 -30 -2 -17 -4z"/>
<path d="M184 415 c-11 -18 -14 -33 -8 -52 12 -41 11 -43 -16 -56 -16 -8 -26
-23 -28 -40 -2 -19 -9 -27 -23 -27 -14 0 -19 -7 -19 -25 0 -14 5 -25 10 -25 6
0 10 -31 10 -74 l0 -75 -38 -4 c-20 -2 89 -4 243 -4 154 0 255 3 225 6 l-55 6
-3 38 c-2 20 1 37 7 37 5 0 17 7 25 16 20 20 23 154 4 154 -18 0 -37 45 -27
62 14 22 10 54 -9 71 -22 20 -63 22 -80 5 -18 -18 -15 -69 5 -91 17 -18 17
-20 -10 -43 -34 -29 -63 -31 -77 -5 -5 11 -20 21 -32 23 -15 2 -21 9 -19 18
12 42 12 82 1 95 -20 24 -67 19 -86 -10z m65 1 c18 -21 10 -70 -12 -74 -41 -8
-66 56 -29 77 23 14 28 13 41 -3z m212 4 c38 -21 14 -86 -28 -78 -22 4 -30 53
-12 74 14 17 15 17 40 4z m-219 -112 c-9 -9 -15 -9 -24 0 -9 9 -7 12 12 12 19
0 21 -3 12 -12z m218 5 c0 -4 -14 -22 -32 -40 -28 -29 -38 -33 -85 -33 -29 0
-53 5 -53 10 0 6 22 10 48 10 41 0 53 5 77 30 28 29 45 38 45 23z m-235 -25
c6 0 19 3 30 6 11 4 26 2 34 -3 11 -7 9 -13 -8 -30 -16 -16 -33 -21 -76 -21
-52 0 -55 2 -55 24 0 25 22 38 50 29 8 -3 20 -5 25 -5z m253 -55 l-3 -58 -47
-3 c-29 -2 -48 1 -48 7 0 6 7 11 15 11 8 0 15 9 15 20 0 20 46 77 63 79 4 1 7
-25 5 -56z m21 -89 c-13 -16 -119 -20 -119 -4 0 6 19 10 42 10 56 0 78 21 80
79 2 42 2 40 5 -12 3 -36 -1 -64 -8 -73z m-109 66 c0 -6 -51 -10 -134 -10 -79
0 -137 4 -141 10 -4 6 43 10 134 10 87 0 141 -4 141 -10z m-30 -30 c0 -6 -36
-10 -89 -10 -50 0 -93 -4 -96 -10 -4 -6 28 -10 89 -10 l96 0 0 -55 c0 -57 -11
-70 -30 -35 -9 17 -21 20 -85 20 -64 0 -76 -3 -85 -20 -19 -35 -30 -22 -30 35
0 46 3 55 18 55 16 1 16 1 0 14 -10 7 -18 16 -18 20 0 3 52 6 115 6 70 0 115
-4 115 -10z m70 -105 c0 -31 -3 -35 -25 -35 -22 0 -25 4 -25 35 0 31 3 35 25
35 22 0 25 -4 25 -35z m30 23 c0 -7 3 -23 6 -36 4 -12 2 -22 -4 -22 -5 0 -12
16 -14 35 -2 19 0 35 4 35 4 0 8 -6 8 -12z m-140 -48 c0 -6 -32 -10 -76 -10
-47 0 -73 4 -69 10 3 6 37 10 76 10 39 0 69 -4 69 -10z"/>
</g>
</svg>
