<?xml version="1.0" standalone="no"?>
<!DOCTYPE svg PUBLIC "-//W3C//DTD SVG 20010904//EN"
 "http://www.w3.org/TR/2001/REC-SVG-20010904/DTD/svg10.dtd">
<svg version="1.0" xmlns="http://www.w3.org/2000/svg"
 width="62.000000pt" height="62.000000pt" viewBox="0 0 62.000000 62.000000"
 preserveAspectRatio="xMidYMid meet">

<g transform="translate(0.000000,62.000000) scale(0.100000,-0.100000)"
fill="#212B36" stroke="none">
<path d="M389 573 c-14 -17 -13 -20 13 -43 20 -17 27 -31 23 -42 -6 -15 -10
-15 -52 4 -100 44 -227 -8 -271 -112 -19 -46 -18 -130 3 -171 40 -80 104 -119
191 -119 68 0 112 20 158 70 60 67 68 143 25 247 -7 18 -10 35 -6 39 11 12 37
-17 37 -42 0 -38 17 -37 60 4 34 34 38 41 25 52 -8 6 -19 9 -25 5 -6 -4 -20 1
-31 11 -19 17 -18 18 22 42 36 22 39 26 26 39 -13 13 -23 14 -67 3 -48 -11
-53 -11 -74 9 -27 26 -37 26 -57 4z m58 -25 c23 -21 25 -21 73 -6 56 18 67 7
18 -18 -18 -9 -35 -18 -37 -20 -2 -1 7 -17 19 -34 16 -22 28 -30 41 -27 17 5
17 3 -3 -18 -22 -23 -23 -23 -28 -5 -3 10 -17 28 -31 39 l-26 20 -22 -40 c-30
-52 -38 -43 -17 17 16 47 16 48 -9 74 -14 15 -22 29 -18 33 10 11 15 9 40 -15z
m-129 -70 c23 -23 11 -51 -48 -110 -33 -33 -60 -67 -60 -74 0 -8 17 -25 37
-37 29 -17 34 -23 20 -25 -31 -6 -60 6 -113 45 -49 37 -50 40 -41 73 5 19 20
50 34 69 42 55 141 89 171 59z m87 -46 c0 -42 21 -64 39 -40 11 16 14 14 29
-17 16 -33 16 -35 -2 -45 -11 -5 -22 -24 -26 -41 -4 -17 -29 -55 -56 -85 -27
-30 -49 -63 -49 -74 0 -51 -113 -30 -176 34 -36 35 -72 111 -60 124 2 2 25
-13 51 -32 52 -40 83 -51 120 -42 34 9 32 32 -4 51 -17 8 -33 20 -36 26 -4 5
21 39 55 75 55 57 62 68 56 94 l-5 30 32 -13 c26 -11 32 -19 32 -45z m70 -208
c-16 -43 -77 -104 -102 -104 -26 0 -12 31 37 85 28 30 50 63 50 73 0 10 6 24
13 31 20 20 21 -35 2 -85z"/>
<path d="M240 560 c0 -13 11 -13 30 0 12 8 11 10 -7 10 -13 0 -23 -4 -23 -10z"/>
<path d="M313 563 c9 -2 23 -2 30 0 6 3 -1 5 -18 5 -16 0 -22 -2 -12 -5z"/>
<path d="M187 553 c-12 -12 -7 -22 8 -17 8 4 15 10 15 15 0 11 -14 12 -23 2z"/>
<path d="M130 520 c-8 -5 -11 -12 -7 -16 4 -4 13 -2 19 4 15 15 7 24 -12 12z"/>
<path d="M76 464 c-4 -10 -1 -14 6 -12 15 5 23 28 10 28 -5 0 -13 -7 -16 -16z"/>
<path d="M46 414 c-8 -21 -8 -24 3 -24 12 0 22 28 12 35 -5 3 -12 -2 -15 -11z"/>
<path d="M550 356 c0 -8 5 -18 10 -21 6 -3 10 3 10 14 0 12 -4 21 -10 21 -5 0
-10 -6 -10 -14z"/>
<path d="M24 349 c-3 -6 -1 -16 5 -22 8 -8 11 -5 11 11 0 24 -5 28 -16 11z"/>
<path d="M562 285 c0 -16 2 -22 5 -12 2 9 2 23 0 30 -3 6 -5 -1 -5 -18z"/>
<path d="M20 275 c0 -8 5 -15 10 -15 6 0 10 7 10 15 0 8 -4 15 -10 15 -5 0
-10 -7 -10 -15z"/>
<path d="M547 226 c-4 -10 -5 -21 -2 -24 9 -9 17 6 13 25 -3 17 -4 17 -11 -1z"/>
<path d="M34 214 c3 -9 6 -18 6 -20 0 -2 4 -4 9 -4 5 0 7 9 4 20 -3 11 -10 20
-15 20 -6 0 -7 -7 -4 -16z"/>
<path d="M522 168 c-14 -14 -16 -28 -3 -28 9 0 24 30 18 36 -2 2 -9 -2 -15 -8z"/>
<path d="M60 165 c0 -18 19 -40 26 -32 4 4 0 15 -9 24 -9 10 -17 13 -17 8z"/>
<path d="M475 109 c-4 -6 -5 -13 -2 -16 7 -7 27 6 27 18 0 12 -17 12 -25 -2z"/>
<path d="M110 95 c7 -9 15 -13 17 -11 7 7 -7 26 -19 26 -6 0 -6 -6 2 -15z"/>
<path d="M420 70 c-8 -5 -12 -12 -9 -15 8 -8 39 5 39 16 0 11 -11 11 -30 -1z"/>
<path d="M155 60 c3 -5 13 -10 21 -10 8 0 12 5 9 10 -3 6 -13 10 -21 10 -8 0
-12 -4 -9 -10z"/>
<path d="M220 40 c0 -5 10 -10 23 -10 18 0 19 2 7 10 -19 13 -30 13 -30 0z"/>
<path d="M355 40 c-3 -5 1 -10 9 -10 8 0 18 5 21 10 3 6 -1 10 -9 10 -8 0 -18
-4 -21 -10z"/>
<path d="M280 30 c0 -5 9 -10 20 -10 11 0 20 5 20 10 0 6 -9 10 -20 10 -11 0
-20 -4 -20 -10z"/>
</g>
</svg>
