<?xml version="1.0" standalone="no"?>
<!DOCTYPE svg PUBLIC "-//W3C//DTD SVG 20010904//EN"
 "http://www.w3.org/TR/2001/REC-SVG-20010904/DTD/svg10.dtd">
<svg version="1.0" xmlns="http://www.w3.org/2000/svg"
 width="62.000000pt" height="62.000000pt" viewBox="0 0 62.000000 62.000000"
 preserveAspectRatio="xMidYMid meet">

<g transform="translate(0.000000,62.000000) scale(0.100000,-0.100000)"
fill="#54D62C" stroke="none">
<path d="M272 491 c-101 -30 -157 -52 -163 -63 -7 -12 -6 -31 0 -55 6 -21 11
-91 11 -155 0 -144 2 -148 103 -148 89 0 79 18 -13 22 l-65 3 -3 73 -3 72 176
0 176 0 -3 -72 -3 -73 -65 -3 c-92 -4 -102 -22 -13 -22 102 0 104 3 101 154
l-3 121 -143 5 -143 5 118 34 c174 50 164 44 151 83 -10 31 -42 69 -57 67 -3
-1 -75 -22 -159 -48z m182 13 c21 -20 20 -53 0 -61 -10 -4 -27 6 -47 25 l-31
31 25 10 c33 13 35 13 53 -5z m-62 -43 l33 -29 -28 -7 c-23 -6 -34 -2 -57 20
-52 50 -3 65 52 16z m-68 -20 c27 -29 28 -29 6 -36 -23 -7 -95 39 -85 56 12
18 52 8 79 -20z m-70 -20 c27 -29 28 -29 7 -36 -16 -5 -31 2 -56 23 -18 17
-31 33 -28 36 15 15 52 4 77 -23z m-70 -20 l27 -29 -32 -11 c-45 -15 -47 -15
-54 19 -12 56 16 66 59 21z m26 -76 c0 -22 -34 -65 -50 -65 -16 0 -20 7 -20
35 0 33 2 35 35 35 19 0 35 -2 35 -5z m63 -26 c-19 -34 -33 -43 -57 -37 -28 6
18 68 49 68 l26 0 -18 -31z m70 0 c-19 -34 -33 -43 -57 -37 -26 5 20 68 51 68
l24 0 -18 -31z m70 -1 c-11 -18 -29 -34 -41 -36 -26 -4 -27 0 -7 38 11 22 23
30 41 30 l26 0 -19 -32z m77 -3 c0 -33 -2 -35 -35 -35 -40 0 -40 1 -20 40 9
18 24 30 35 30 16 0 20 -7 20 -35z"/>
<path d="M280 165 c0 -30 3 -55 6 -55 16 0 93 53 88 61 -5 9 -78 49 -89 49 -3
0 -5 -25 -5 -55z m54 12 c17 -12 16 -14 -8 -25 -24 -11 -26 -10 -26 13 0 28 8
31 34 12z"/>
</g>
</svg>
