<?xml version="1.0" standalone="no"?>
<!DOCTYPE svg PUBLIC "-//W3C//DTD SVG 20010904//EN"
 "http://www.w3.org/TR/2001/REC-SVG-20010904/DTD/svg10.dtd">
<svg version="1.0" xmlns="http://www.w3.org/2000/svg"
 width="62.000000pt" height="62.000000pt" viewBox="0 0 62.000000 62.000000"
 preserveAspectRatio="xMidYMid meet">

<g transform="translate(0.000000,62.000000) scale(0.100000,-0.100000)"
fill="#000000" stroke="none">
<path d="M240 425 c-96 -96 -108 -105 -142 -105 -38 0 -38 -1 -38 -39 0 -31 4
-41 20 -46 26 -8 26 -41 0 -57 -14 -9 -20 -24 -20 -50 l0 -38 250 0 250 0 0
38 c0 26 -6 41 -20 50 -11 7 -20 21 -20 31 0 11 9 23 20 26 16 5 20 15 20 46
l0 39 -57 0 -57 0 29 30 29 30 -24 25 c-16 17 -32 24 -54 22 -29 -2 -31 0 -32
30 0 29 -27 73 -43 73 -4 0 -53 -47 -111 -105z m132 40 c-6 -34 14 -55 53 -55
18 0 38 -7 45 -15 11 -13 8 -21 -15 -45 -29 -30 -69 -44 -47 -17 9 10 -1 25
-41 65 l-53 52 -64 -65 c-35 -36 -69 -65 -75 -65 -5 0 33 43 85 95 66 66 97
91 106 85 6 -6 9 -21 6 -35z m-9 -83 c50 -51 37 -62 -67 -62 l-80 0 49 50 c27
28 52 50 55 50 3 0 23 -17 43 -38z m-223 -87 c0 -8 5 -15 10 -15 6 0 10 7 10
15 0 13 28 15 190 15 l190 0 0 -25 c0 -14 -9 -34 -20 -45 -11 -11 -20 -27 -20
-35 0 -8 9 -24 20 -35 11 -11 20 -29 20 -40 0 -16 -7 -20 -30 -20 -20 0 -30 5
-30 15 0 8 -4 15 -10 15 -5 0 -10 -7 -10 -15 0 -13 -28 -15 -190 -15 -183 0
-190 1 -190 20 0 11 9 29 20 40 25 25 25 45 0 70 -11 11 -20 31 -20 45 0 21 5
25 30 25 20 0 30 -5 30 -15z"/>
<path d="M202 270 c-16 -26 -15 -110 2 -132 11 -15 29 -18 105 -18 84 0 95 2
112 23 24 29 24 95 0 125 -17 20 -28 22 -113 22 -82 0 -95 -2 -106 -20z m206
-12 c17 -17 15 -86 -2 -104 -20 -20 -172 -20 -192 0 -17 18 -19 87 -2 104 16
16 180 16 196 0z"/>
<path d="M460 275 c0 -8 5 -15 10 -15 6 0 10 7 10 15 0 8 -4 15 -10 15 -5 0
-10 -7 -10 -15z"/>
<path d="M140 245 c0 -8 5 -15 10 -15 6 0 10 7 10 15 0 8 -4 15 -10 15 -5 0
-10 -7 -10 -15z"/>
<path d="M460 225 c0 -8 5 -15 10 -15 6 0 10 7 10 15 0 8 -4 15 -10 15 -5 0
-10 -7 -10 -15z"/>
<path d="M140 195 c0 -8 5 -15 10 -15 6 0 10 7 10 15 0 8 -4 15 -10 15 -5 0
-10 -7 -10 -15z"/>
<path d="M460 175 c0 -8 5 -15 10 -15 6 0 10 7 10 15 0 8 -4 15 -10 15 -5 0
-10 -7 -10 -15z"/>
<path d="M140 145 c0 -8 5 -15 10 -15 6 0 10 7 10 15 0 8 -4 15 -10 15 -5 0
-10 -7 -10 -15z"/>
</g>
</svg>
