<?xml version="1.0" standalone="no"?>
<!DOCTYPE svg PUBLIC "-//W3C//DTD SVG 20010904//EN"
 "http://www.w3.org/TR/2001/REC-SVG-20010904/DTD/svg10.dtd">
<svg version="1.0" xmlns="http://www.w3.org/2000/svg"
 width="62.000000pt" height="62.000000pt" viewBox="0 0 62.000000 62.000000"
 preserveAspectRatio="xMidYMid meet">

<g transform="translate(0.000000,62.000000) scale(0.100000,-0.100000)"
fill="#000000" stroke="none">
<path d="M231 516 c-21 -25 -2 -46 41 -46 23 0 37 4 33 10 -3 6 -20 10 -36 10
-18 0 -28 4 -24 10 3 6 36 10 72 10 61 0 67 -2 97 -34 17 -18 41 -37 54 -40
16 -6 22 -15 22 -37 0 -27 -3 -29 -35 -29 -28 0 -45 9 -78 39 -23 22 -39 43
-34 47 4 4 17 -2 30 -14 36 -34 55 -27 22 8 -18 19 -38 30 -50 28 -71 -10 32
-128 113 -128 15 0 33 -5 39 -11 6 -6 23 -9 39 -7 27 3 29 6 32 51 2 28 -1 47
-7 47 -6 0 -11 -18 -11 -40 0 -33 -3 -40 -20 -40 -17 0 -20 7 -20 49 0 30 5
51 13 54 6 2 8 8 4 13 -4 4 -17 3 -27 -4 -27 -17 -26 -17 -70 28 -39 40 -40
40 -113 40 -51 0 -78 -4 -86 -14z"/>
<path d="M550 460 c0 -5 5 -10 10 -10 6 0 10 5 10 10 0 6 -4 10 -10 10 -5 0
-10 -4 -10 -10z"/>
<path d="M260 450 c0 -5 5 -10 10 -10 6 0 10 5 10 10 0 6 -4 10 -10 10 -5 0
-10 -4 -10 -10z"/>
<path d="M185 400 c-3 -5 -1 -10 4 -10 6 0 11 5 11 10 0 6 -2 10 -4 10 -3 0
-8 -4 -11 -10z"/>
<path d="M235 340 c-10 -11 -14 -26 -11 -38 7 -20 67 -72 83 -72 15 0 83 67
83 81 -1 32 -19 43 -79 45 -47 2 -63 -1 -76 -16z m64 -12 c11 -10 14 -10 18 0
7 17 40 15 47 -4 8 -20 3 -28 -33 -53 l-28 -20 -34 28 c-29 25 -32 31 -20 45
16 19 32 20 50 4z"/>
<path d="M150 310 c0 -5 5 -10 10 -10 6 0 10 5 10 10 0 6 -4 10 -10 10 -5 0
-10 -4 -10 -10z"/>
<path d="M445 290 c3 -5 8 -10 11 -10 2 0 4 5 4 10 0 6 -5 10 -11 10 -5 0 -7
-4 -4 -10z"/>
<path d="M150 280 c0 -5 5 -10 10 -10 6 0 10 5 10 10 0 6 -4 10 -10 10 -5 0
-10 -4 -10 -10z"/>
<path d="M47 273 c-11 -10 -8 -93 3 -93 6 0 10 18 10 40 0 33 3 40 20 40 17 0
20 -7 20 -49 0 -30 -5 -51 -12 -54 -7 -2 -9 -8 -5 -13 4 -4 17 -3 27 4 27 17
26 17 70 -28 39 -40 40 -40 113 -40 78 0 106 13 93 45 -6 17 -76 22 -76 5 0
-5 14 -10 31 -10 17 0 28 -4 24 -10 -3 -5 -36 -10 -72 -10 -61 0 -67 2 -97 34
-17 18 -41 37 -53 40 -17 6 -23 15 -23 37 0 27 3 29 35 29 28 0 45 -9 78 -39
23 -22 39 -43 34 -47 -4 -4 -17 2 -30 14 -36 34 -55 27 -22 -8 18 -19 38 -30
50 -28 72 10 -33 128 -114 128 -16 0 -33 5 -36 10 -7 11 -58 14 -68 3z"/>
<path d="M425 230 c3 -5 8 -10 11 -10 2 0 4 5 4 10 0 6 -5 10 -11 10 -5 0 -7
-4 -4 -10z"/>
<path d="M385 190 c-3 -5 -1 -10 4 -10 6 0 11 5 11 10 0 6 -2 10 -4 10 -3 0
-8 -4 -11 -10z"/>
<path d="M40 150 c0 -5 5 -10 10 -10 6 0 10 5 10 10 0 6 -4 10 -10 10 -5 0
-10 -4 -10 -10z"/>
</g>
</svg>
