<?xml version="1.0" standalone="no"?>
<!DOCTYPE svg PUBLIC "-//W3C//DTD SVG 20010904//EN"
 "http://www.w3.org/TR/2001/REC-SVG-20010904/DTD/svg10.dtd">
<svg version="1.0" xmlns="http://www.w3.org/2000/svg"
 width="62.000000pt" height="62.000000pt" viewBox="0 0 62.000000 62.000000"
 preserveAspectRatio="xMidYMid meet">

<g transform="translate(0.000000,62.000000) scale(0.100000,-0.100000)"
fill="#7635DC" stroke="none">
<path d="M167 520 c-137 -58 -154 -67 -146 -73 12 -10 281 -117 295 -117 25 0
114 42 109 51 -3 4 -26 -1 -51 -11 -25 -11 -52 -20 -59 -20 -13 0 -235 89
-247 99 -4 3 50 30 120 58 l127 53 127 -53 c70 -28 124 -55 120 -58 -4 -4 -28
-14 -54 -24 -44 -16 -49 -16 -97 0 -28 9 -56 26 -62 36 -15 28 -63 22 -67 -8
-3 -22 28 -41 47 -29 5 4 35 -3 65 -15 l56 -20 0 -123 c0 -82 -4 -126 -12
-134 -16 -16 13 -47 36 -39 18 7 22 42 6 52 -16 10 -11 48 10 75 21 26 28 110
10 110 -5 0 -10 -20 -10 -44 0 -25 -5 -48 -11 -51 -7 -5 -9 14 -7 55 l3 62 60
24 c33 14 64 29 69 34 14 14 -1 25 -16 12 -21 -17 -118 -53 -118 -43 0 5 31
22 70 37 70 29 81 37 58 47 -7 3 -73 30 -147 61 -73 31 -136 56 -140 55 -3 0
-68 -27 -144 -59z m163 -70 c0 -5 -7 -10 -15 -10 -8 0 -15 5 -15 10 0 6 7 10
15 10 8 0 15 -4 15 -10z m140 -330 c0 -5 -5 -10 -11 -10 -5 0 -7 5 -4 10 3 6
8 10 11 10 2 0 4 -4 4 -10z"/>
<path d="M22 418 c5 -14 261 -126 289 -127 24 -1 119 40 119 51 0 6 -8 7 -17
3 -10 -4 -37 -14 -59 -23 l-41 -15 -129 52 c-71 29 -133 57 -138 62 -14 13
-28 11 -24 -3z"/>
<path d="M120 286 c0 -52 28 -87 92 -116 67 -30 218 -22 218 12 0 6 -8 7 -17
3 -10 -4 -35 -9 -55 -12 l-37 -5 -4 48 -3 49 -2 -47 c-2 -45 -4 -48 -29 -48
-39 1 -107 33 -127 61 -9 13 -16 40 -16 61 0 21 -4 38 -10 38 -5 0 -10 -20
-10 -44z"/>
<path d="M423 70 c-6 -14 -8 -29 -5 -34 7 -13 24 22 19 42 -3 14 -6 12 -14 -8z"/>
<path d="M488 85 c-8 -8 3 -55 13 -55 5 0 9 8 9 18 0 20 -14 44 -22 37z"/>
<path d="M453 64 c-3 -8 -1 -20 6 -27 8 -8 11 -4 11 16 0 30 -7 35 -17 11z"/>
</g>
</svg>
