<?xml version="1.0" standalone="no"?>
<!DOCTYPE svg PUBLIC "-//W3C//DTD SVG 20010904//EN"
 "http://www.w3.org/TR/2001/REC-SVG-20010904/DTD/svg10.dtd">
<svg version="1.0" xmlns="http://www.w3.org/2000/svg"
 width="62.000000pt" height="62.000000pt" viewBox="0 0 62.000000 62.000000"
 preserveAspectRatio="xMidYMid meet">

<g transform="translate(0.000000,62.000000) scale(0.100000,-0.100000)"
fill="#212B36" stroke="none">
<path d="M92 528 c-17 -17 -17 -429 0 -446 17 -17 259 -17 276 0 7 7 12 39 12
75 l0 62 50 7 c59 8 67 16 46 49 -10 15 -14 35 -10 54 6 26 3 32 -22 43 -16 7
-32 17 -36 23 -34 51 -31 52 -89 -21 -29 -38 -58 -71 -63 -73 -5 -2 -23 -16
-40 -32 -30 -27 -31 -29 -15 -56 12 -22 22 -28 47 -28 17 0 34 -5 37 -12 3
-10 -18 -13 -90 -13 l-95 0 0 150 0 151 138 -2 137 -1 3 26 c6 50 -9 56 -147
56 -85 0 -131 -4 -139 -12z m266 -30 c3 -16 -8 -18 -127 -18 -125 0 -131 1
-131 20 0 20 5 20 127 18 112 -3 128 -5 131 -20z m65 -168 c29 -51 41 -80 32
-80 -16 0 -98 138 -89 151 3 5 7 9 9 9 1 0 23 -36 48 -80z m-38 -16 c20 -36
35 -67 33 -69 -1 -1 -25 -6 -53 -9 -48 -7 -51 -6 -68 25 l-17 31 32 44 c18 24
34 44 35 44 1 0 18 -30 38 -66z m65 25 c0 -6 -4 -7 -10 -4 -5 3 -10 11 -10 16
0 6 5 7 10 4 6 -3 10 -11 10 -16z m-165 -89 c14 -27 14 -30 -5 -40 -53 -28
-94 16 -49 51 32 25 36 24 54 -11z m75 -62 l-1 -33 -14 25 c-10 19 -10 27 -2
32 17 11 17 11 17 -24z m-37 -3 c9 -22 -8 -26 -21 -4 -10 15 -10 19 2 19 8 0
16 -7 19 -15z m35 -67 c-3 -22 -7 -23 -130 -26 l-128 -3 0 26 0 25 131 0 c130
0 130 0 127 -22z"/>
<path d="M190 500 c0 -5 18 -10 40 -10 22 0 40 5 40 10 0 6 -18 10 -40 10 -22
0 -40 -4 -40 -10z"/>
<path d="M458 444 c-5 -4 -8 -16 -8 -28 0 -14 3 -17 11 -9 6 6 9 19 7 28 -1 9
-6 13 -10 9z"/>
<path d="M125 430 c-4 -6 20 -10 64 -10 41 0 71 4 71 10 0 13 -127 13 -135 0z"/>
<path d="M513 398 c-20 -10 -32 -28 -18 -28 12 0 55 24 55 32 0 10 -9 9 -37
-4z"/>
<path d="M120 380 c0 -5 23 -10 50 -10 28 0 50 5 50 10 0 6 -22 10 -50 10 -27
0 -50 -4 -50 -10z"/>
<path d="M120 340 c0 -5 5 -10 11 -10 5 0 7 5 4 10 -3 6 -8 10 -11 10 -2 0 -4
-4 -4 -10z"/>
<path d="M160 340 c0 -5 18 -10 40 -10 22 0 40 5 40 10 0 6 -18 10 -40 10 -22
0 -40 -4 -40 -10z"/>
<path d="M505 320 c3 -5 13 -10 21 -10 8 0 14 5 14 10 0 6 -9 10 -21 10 -11 0
-17 -4 -14 -10z"/>
</g>
</svg>
