<?xml version="1.0" standalone="no"?>
<!DOCTYPE svg PUBLIC "-//W3C//DTD SVG 20010904//EN"
 "http://www.w3.org/TR/2001/REC-SVG-20010904/DTD/svg10.dtd">
<svg version="1.0" xmlns="http://www.w3.org/2000/svg"
 width="62.000000pt" height="62.000000pt" viewBox="0 0 62.000000 62.000000"
 preserveAspectRatio="xMidYMid meet">

<g transform="translate(0.000000,62.000000) scale(0.100000,-0.100000)"
fill="#FF4842" stroke="none">
<path d="M200 330 c0 -133 4 -210 10 -210 6 0 10 73 10 200 l0 200 90 0 90 0
0 -200 c0 -127 4 -200 10 -200 6 0 10 77 10 210 l0 210 -110 0 -110 0 0 -210z"/>
<path d="M250 460 c0 -23 4 -30 20 -30 16 0 20 7 20 30 0 23 -4 30 -20 30 -16
0 -20 -7 -20 -30z m26 -7 c-10 -10 -19 5 -10 18 6 11 8 11 12 0 2 -7 1 -15 -2
-18z"/>
<path d="M330 460 c0 -23 4 -30 20 -30 16 0 20 7 20 30 0 23 -4 30 -20 30 -16
0 -20 -7 -20 -30z m30 -1 c0 -5 -4 -9 -10 -9 -5 0 -10 7 -10 16 0 8 5 12 10 9
6 -3 10 -10 10 -16z"/>
<path d="M87 443 c-11 -11 -8 -163 3 -163 6 0 10 32 10 75 l0 75 46 0 c27 0
43 4 39 10 -7 11 -88 14 -98 3z"/>
<path d="M435 441 c-4 -7 10 -11 39 -11 l46 0 0 -154 0 -153 -23 4 c-30 6 -77
-31 -61 -47 6 -6 31 -10 55 -8 l44 3 0 185 0 185 -47 3 c-25 2 -49 -2 -53 -7z
m84 -348 c2 -2 -13 -3 -34 -3 -36 0 -37 1 -19 14 14 11 23 12 34 3 8 -6 17
-13 19 -14z"/>
<path d="M130 370 c0 -23 4 -30 20 -30 16 0 20 7 20 30 0 23 -4 30 -20 30 -16
0 -20 -7 -20 -30z m30 -5 c0 -8 -4 -15 -10 -15 -5 0 -10 7 -10 15 0 8 5 15 10
15 6 0 10 -7 10 -15z"/>
<path d="M250 370 c0 -23 4 -30 20 -30 16 0 20 7 20 30 0 23 -4 30 -20 30 -16
0 -20 -7 -20 -30z m30 -6 c0 -8 -4 -12 -10 -9 -5 3 -10 10 -10 16 0 5 5 9 10
9 6 0 10 -7 10 -16z"/>
<path d="M330 370 c0 -23 4 -30 20 -30 16 0 20 7 20 30 0 23 -4 30 -20 30 -16
0 -20 -7 -20 -30z m30 1 c0 -6 -4 -13 -10 -16 -5 -3 -10 1 -10 9 0 9 5 16 10
16 6 0 10 -4 10 -9z"/>
<path d="M450 370 c0 -23 4 -30 20 -30 16 0 20 7 20 30 0 23 -4 30 -20 30 -16
0 -20 -7 -20 -30z m30 -5 c0 -8 -4 -15 -10 -15 -5 0 -10 7 -10 15 0 8 5 15 10
15 6 0 10 -7 10 -15z"/>
<path d="M131 283 c0 -11 3 -13 6 -5 8 21 21 13 26 -15 4 -26 4 -26 6 5 1 26
-3 32 -19 32 -13 0 -20 -6 -19 -17z"/>
<path d="M250 270 c0 -23 4 -30 20 -30 16 0 20 7 20 30 0 23 -4 30 -20 30 -16
0 -20 -7 -20 -30z m30 5 c0 -8 -4 -15 -10 -15 -5 0 -10 7 -10 15 0 8 5 15 10
15 6 0 10 -7 10 -15z"/>
<path d="M330 270 c0 -23 4 -30 20 -30 16 0 20 7 20 30 0 23 -4 30 -20 30 -16
0 -20 -7 -20 -30z m30 5 c0 -8 -4 -15 -10 -15 -5 0 -10 7 -10 15 0 8 5 15 10
15 6 0 10 -7 10 -15z"/>
<path d="M450 270 c0 -23 4 -30 20 -30 16 0 20 7 20 30 0 23 -4 30 -20 30 -16
0 -20 -7 -20 -30z m30 5 c0 -8 -4 -15 -10 -15 -5 0 -10 7 -10 15 0 8 5 15 10
15 6 0 10 -7 10 -15z"/>
<path d="M100 245 c-20 -24 -25 -93 -7 -113 8 -9 17 -28 19 -42 4 -23 5 -23
12 -5 4 11 14 32 22 46 14 27 11 75 -8 112 -11 21 -22 22 -38 2z m35 -39 c9
-45 3 -71 -15 -71 -17 0 -25 43 -16 81 9 34 24 29 31 -10z"/>
<path d="M243 203 c12 -3 17 -15 17 -44 0 -21 5 -39 10 -39 6 0 10 18 10 40 0
38 2 40 30 40 28 0 30 -2 30 -40 0 -22 5 -40 10 -40 6 0 10 18 10 39 0 29 5
41 18 44 9 3 -21 5 -68 5 -47 0 -77 -2 -67 -5z"/>
<path d="M450 180 c0 -23 4 -30 20 -30 16 0 20 7 20 30 0 23 -4 30 -20 30 -16
0 -20 -7 -20 -30z m30 -6 c0 -8 -4 -12 -10 -9 -5 3 -10 10 -10 16 0 5 5 9 10
9 6 0 10 -7 10 -16z"/>
<path d="M190 84 c0 -12 3 -14 13 -6 7 6 60 13 118 15 l104 3 -117 2 c-103 2
-118 0 -118 -14z"/>
</g>
</svg>
