<?xml version="1.0" standalone="no"?>
<!DOCTYPE svg PUBLIC "-//W3C//DTD SVG 20010904//EN"
 "http://www.w3.org/TR/2001/REC-SVG-20010904/DTD/svg10.dtd">
<svg version="1.0" xmlns="http://www.w3.org/2000/svg"
 width="62.000000pt" height="62.000000pt" viewBox="0 0 62.000000 62.000000"
 preserveAspectRatio="xMidYMid meet">

<g transform="translate(0.000000,62.000000) scale(0.100000,-0.100000)"
fill="#000000" stroke="none">
<path d="M140 537 c0 -7 18 -30 39 -51 31 -30 37 -41 28 -51 -10 -11 -19 -6
-49 23 -24 22 -34 38 -27 43 8 5 8 8 0 13 -6 4 -11 2 -11 -4 0 -6 -4 -8 -10
-5 -23 14 -7 -12 33 -55 l42 -45 -47 45 c-37 34 -51 41 -60 32 -16 -16 78
-124 118 -135 16 -5 41 -12 57 -17 15 -5 27 -4 27 1 0 13 -36 29 -67 29 -20 0
-39 11 -64 38 -57 60 -67 81 -16 33 l47 -45 25 24 c14 13 25 28 25 34 0 6 -17
28 -37 50 l-38 40 52 -43 c41 -33 54 -50 58 -79 7 -45 17 -64 36 -70 10 -4 9
0 -3 15 -10 11 -18 35 -18 53 0 28 -9 43 -57 87 -58 53 -83 65 -83 40z"/>
<path d="M465 534 c-58 -30 -85 -64 -85 -109 0 -38 -6 -46 -101 -140 -141
-140 -163 -169 -149 -195 21 -40 51 -20 145 97 134 165 141 173 173 173 35 0
69 30 93 84 23 50 24 70 3 90 -20 20 -41 20 -79 0z m75 -35 c0 -51 -38 -107
-79 -119 -20 -5 -41 -10 -47 -10 -6 0 -42 -39 -80 -87 -135 -171 -164 -203
-179 -197 -8 4 -15 13 -15 21 0 7 56 71 125 141 111 114 124 131 125 162 0 20
7 46 16 59 22 31 74 61 107 61 24 0 27 -4 27 -31z"/>
<path d="M140 494 c0 -12 49 -58 55 -52 3 2 -9 17 -25 33 -17 16 -30 25 -30
19z"/>
<path d="M455 195 c84 -78 89 -85 74 -100 -16 -16 -21 -13 -77 46 -33 35 -69
75 -81 89 -11 14 -20 20 -21 14 0 -16 138 -168 157 -172 19 -5 43 16 43 38 0
18 -159 170 -176 170 -5 0 32 -38 81 -85z"/>
</g>
</svg>
