<?xml version="1.0" encoding="utf-8"?>
<!-- Generator: Adobe Illustrator 24.0.1, SVG Export Plug-In . SVG Version: 6.00 Build 0)  -->
<svg version="1.1" id="Calque_1" xmlns="http://www.w3.org/2000/svg" xmlns:xlink="http://www.w3.org/1999/xlink" x="0px" y="0px"
	 viewBox="0 0 53 53" style="enable-background:new 0 0 53 53;" xml:space="preserve">
<style type="text/css">
	.st0{fill:#0096D6;}
	.st1{fill:#FFFFFF;}
</style>
<path class="st0" d="M43,0.4H10c-5.3,0-9.6,4.3-9.6,9.6v33c0,5.3,4.3,9.6,9.6,9.6h33c5.3,0,9.6-4.3,9.6-9.6V10
	C52.6,4.7,48.3,0.4,43,0.4z"/>
<g>
	<path class="st1" d="M14.6,30.4c-1-3.8-2.1-7.5-3.2-11.2c-1.1,0.1-2.2-0.1-3.2,0c-0.3,0-0.5,0.1-0.8,0.3C7.2,19.5,7,19.7,6.9,20
		c-0.3,0.5-0.2,1.1-0.2,1.8v12.1h3c0-4,0-7.9,0-11.9c1.1,4,2.1,7.9,3.2,11.9h3.3c1.1-4,2.1-7.9,3.2-11.9v11.9h3V19.1h-4.8
		C16.6,22.9,15.6,26.6,14.6,30.4z"/>
	<path class="st1" d="M46,19.7c-0.1-0.2-0.3-0.3-0.4-0.4c-0.2-0.1-0.4-0.2-0.6-0.2c-0.5-0.1-1,0-1.6,0c0,0,0,0,0,0v4.8
		c-0.4-0.6-0.9-1.1-1.7-1.4c-0.7-0.3-1.8-0.4-2.7-0.2c-1.7,0.4-2.7,1.5-3.2,3.1c-0.5,1.6-0.5,3.9,0.1,5.4c0.5,1.5,1.7,2.5,3.4,2.9
		c1.9,0.4,4,0.1,5.2-0.7c1.3-0.8,1.9-2.3,1.9-4.4v-7.7C46.3,20.4,46.3,20,46,19.7z M41,31.5c-2,0.1-2.5-1.4-2.6-3.3
		c0-0.9,0.2-1.8,0.5-2.4c0.2-0.3,0.4-0.6,0.7-0.8c0.3-0.2,0.7-0.3,1.2-0.3c1.9-0.1,2.5,1.5,2.6,3.3C43.5,29.9,42.8,31.4,41,31.5z"/>
	<path class="st1" d="M28.5,23.1c-2.5,0.1-4,1.2-4.7,2.9c-0.3,0.9-0.4,2-0.3,3.1c0.2,2.2,1.1,3.7,3,4.4c1,0.3,2.2,0.5,3.5,0.3
		c2.3-0.3,3.6-1.5,4.1-3.4c-0.7,0.1-1.7-0.1-2.4,0c-0.5,0-0.8,0.3-1.1,0.6c-0.6,0.4-1.5,0.7-2.4,0.5c-1.1-0.3-1.5-1.1-1.6-2.3h7.7
		C34.5,25.4,33,22.9,28.5,23.1z M26.6,27.3c0.2-1.1,0.7-2,2.2-2.1c1.6-0.1,2.2,0.9,2.3,2.1H26.6z"/>
</g>
</svg>
